<?xml version="1.0" encoding="utf-8"?>
<!-- Generator: Adobe Illustrator 22.0.1, SVG Export Plug-In . SVG Version: 6.00 Build 0)  -->
<svg version="1.1" id="Livello_1" xmlns="http://www.w3.org/2000/svg" xmlns:xlink="http://www.w3.org/1999/xlink" x="0px" y="0px"
	 viewBox="0 0 149.7 148.7" style="enable-background:new 0 0 149.7 148.7;" xml:space="preserve">
<style type="text/css">
	.st0{fill:#4486F4;}
</style>
<g id="lente">
	<g>
		<path class="st0" d="M56.5,109C27,109,3.1,85,3.1,55.5S27,2.1,56.5,2.1s53.4,24,53.4,53.4S86,109,56.5,109z M56.5,11.1
			C32,11.1,12.1,31,12.1,55.5S32,100,56.5,100S101,80.1,101,55.5S81,11.1,56.5,11.1z"/>
		<path class="st0" d="M133.3,135.9c-1,0-2.1-0.4-2.9-1.2l-42-42c-1.6-1.6-1.6-4.2,0-5.8c1.6-1.6,4.2-1.6,5.8,0l42,42
			c1.6,1.6,1.6,4.2,0,5.8C135.4,135.5,134.4,135.9,133.3,135.9z"/>
		<path class="st0" d="M139.6,148.3c-2.6,0-5.2-1-7.2-3L100.1,113c-4-4-4-10.5,0-14.5c4-4,10.5-4,14.5,0l32.3,32.3
			c4,4,4,10.5,0,14.5C144.8,147.3,142.2,148.3,139.6,148.3z"/>
	</g>
	<g>
		<path class="st0" d="M56.5,109C27,109,3.1,85,3.1,55.5S27,2.1,56.5,2.1s53.4,24,53.4,53.4S86,109,56.5,109z M56.5,11.1
			C32,11.1,12.1,31,12.1,55.5S32,100,56.5,100S101,80.1,101,55.5S81,11.1,56.5,11.1z"/>
		<path class="st0" d="M133.3,135.9c-1,0-2.1-0.4-2.9-1.2l-42-42c-1.6-1.6-1.6-4.2,0-5.8c1.6-1.6,4.2-1.6,5.8,0l42,42
			c1.6,1.6,1.6,4.2,0,5.8C135.4,135.5,134.4,135.9,133.3,135.9z"/>
		<path class="st0" d="M139.6,148.3c-2.6,0-5.2-1-7.2-3L100.1,113c-4-4-4-10.5,0-14.5c4-4,10.5-4,14.5,0l32.3,32.3
			c4,4,4,10.5,0,14.5C144.8,147.3,142.2,148.3,139.6,148.3z"/>
	</g>
</g>
</svg>
