<?xml version="1.0" encoding="utf-8"?>
<!-- Generator: Adobe Illustrator 22.0.1, SVG Export Plug-In . SVG Version: 6.00 Build 0)  -->
<svg version="1.1" id="Livello_1" xmlns="http://www.w3.org/2000/svg" xmlns:xlink="http://www.w3.org/1999/xlink" x="0px" y="0px"
	 viewBox="0 0 253.8 405.5" style="enable-background:new 0 0 253.8 405.5;" xml:space="preserve">
<style type="text/css">
	.st0{fill:#4486F4;}
	.st1{fill:#EA4335;}
	.st2{fill:#FBBC05;}
	.st3{fill:#3DAC5B;}
</style>
<g>
	<g>
		<path class="st0" d="M0.5,0.7h62.7c8.7,0,16.5,1.4,23.5,4.3c7,2.9,13.1,6.9,18.1,12c5,5.1,8.9,11.2,11.6,18.2
			c2.7,7.1,4.1,14.8,4.1,23.1c0,6.1-1,11.9-2.9,17.2c-1.9,5.4-4.6,10.2-7.9,14.5c-3.4,4.3-7.3,8.2-11.8,11.5
			c-4.5,3.3-9.2,5.9-14.2,7.8l-0.2,1.8l46.1,70.1v2H92.5L48,114.7H32.9v68.6H0.5V0.7z M62.9,83.1c7.4,0,13.4-2.4,18.1-7.1
			c4.7-4.8,7.1-10.8,7.1-18.1c0-3.2-0.5-6.4-1.6-9.4c-1-3.1-2.6-5.8-4.7-8.2c-2.1-2.4-4.7-4.3-7.8-5.7c-3.1-1.4-6.7-2.2-10.7-2.2
			H32.9v50.8H62.9z"/>
		<path class="st1" d="M205.6,157.7c-4.6,8.7-10.9,15.7-18.7,21c-7.8,5.3-17.4,8-28.7,8c-7.6,0-14.7-1.4-21.1-4.2
			c-6.5-2.8-12.1-6.8-16.8-11.8c-4.8-5.1-8.5-11-11.1-17.9c-2.7-6.9-4-14.4-4-22.7c0-7.7,1.3-14.9,3.9-21.8
			c2.6-6.9,6.2-12.9,10.8-18c4.6-5.1,10.1-9.2,16.4-12.3c6.3-3,13.3-4.6,20.9-4.6c8,0,15.2,1.4,21.4,4.2c6.3,2.8,11.5,6.7,15.7,11.7
			c4.2,5,7.4,10.9,9.6,17.7c2.2,6.8,3.3,14.2,3.3,22.1c0,1,0,1.9,0,2.6c-0.1,0.9-0.2,1.7-0.2,2.4c-0.1,0.7-0.2,1.5-0.2,2.4h-75.4
			c0.5,4.3,1.7,8.1,3.4,11.2s3.8,5.7,6.3,7.8c2.5,2.1,5.3,3.6,8.3,4.6c3,0.9,6.1,1.4,9.2,1.4c6.1,0,11.2-1.5,15.2-4.4
			c4-3,7.2-6.7,9.5-11.2L205.6,157.7z M181.3,116.5c-0.1-1.9-0.7-4-1.7-6.3c-1-2.3-2.5-4.5-4.5-6.5c-2-2-4.4-3.7-7.3-5
			c-2.9-1.3-6.4-2-10.5-2c-5.7,0-10.8,1.7-15.1,5.2c-4.4,3.5-7.4,8.3-9.2,14.5H181.3z"/>
	</g>
	<g>
		<path class="st2" d="M62.4,293.4c-8.3,0-15.6-1-22.1-2.9c-6.5-2-12.1-4.5-16.8-7.7c-4.7-3.2-8.8-6.9-12-11
			c-3.3-4.2-5.8-8.4-7.5-12.6l30.2-12.3c2.9,6.2,6.9,10.8,11.8,13.9c4.9,3,10.4,4.5,16.4,4.5c6.2,0,11.1-1.1,14.7-3.2
			c3.6-2.1,5.4-4.7,5.4-7.6c0-3.3-1.5-5.9-4.5-8c-3-2-8.2-3.9-15.6-5.5l-17.8-3.7c-4-0.8-8-2.1-12.3-3.9c-4.2-1.8-8-4.1-11.5-6.9
			c-3.4-2.8-6.3-6.1-8.5-10.1c-2.2-3.9-3.4-8.5-3.4-13.7c0-5.9,1.3-11.1,4-15.7s6.3-8.5,11-11.7c4.6-3.2,10.1-5.6,16.4-7.4
			c6.3-1.7,13.1-2.6,20.3-2.6c12,0,22.8,2.2,32.3,6.7c9.5,4.5,16.4,11.6,20.9,21.5l-29.2,11.3c-2.4-4.7-5.9-8.2-10.6-10.3
			c-4.6-2.1-9.3-3.2-13.9-3.2c-4.8,0-9,0.9-12.7,2.8c-3.6,1.9-5.4,4.3-5.4,7.2c0,2.8,1.5,5,4.5,6.6c3,1.6,7.1,3.1,12.3,4.4l19.4,4.4
			c12.9,2.9,22.5,7.6,28.8,14.1c6.3,6.5,9.4,14.1,9.4,22.9c0,5.2-1.3,10.2-3.9,15c-2.6,4.7-6.2,9-11,12.6
			c-4.7,3.7-10.4,6.6-17.1,8.7C77.9,292.3,70.5,293.4,62.4,293.4z"/>
		<path class="st3" d="M191.7,276h-1.6c-3.1,5.4-7.4,9.6-12.7,12.7c-5.3,3.1-11.4,4.7-18.2,4.7c-12.7,0-22.1-4.1-28.3-12.4
			c-6.2-8.2-9.3-19.2-9.3-33v-64.4h26.8v60.9c0,7.7,1.6,13.3,4.8,17c3.2,3.7,7.9,5.5,14,5.5c3.7,0,6.9-0.8,9.7-2.5
			c2.8-1.7,5.2-3.9,7.1-6.7c2-2.8,3.5-6.1,4.5-10c1-3.8,1.5-7.9,1.5-12.3v-52.1h26.7v106.3h-25.1V276z"/>
	</g>
	<g>
		<path class="st0" d="M0.5,294h25.1v13.9h1.6c3.1-5.2,7.4-9.4,12.8-12.6c5.4-3.2,11.3-4.8,17.9-4.8c7.6,0,14,1.9,19.2,5.6
			c5.2,3.8,8.8,8.4,11,13.9c3.1-5.4,7.6-9.9,13.3-13.8c5.7-3.8,12.7-5.7,20.8-5.7c6.1,0,11.4,1,15.9,3.1c4.5,2.1,8.2,5,11.1,8.8
			c2.9,3.8,5.1,8.3,6.6,13.6c1.5,5.3,2.2,11,2.2,17.2v67h-26.7v-61.8c0-14.5-5.6-21.7-16.8-21.7c-3.5,0-6.7,0.8-9.4,2.5
			c-2.7,1.7-5,3.9-6.8,6.7c-1.8,2.8-3.3,6.2-4.3,10.1c-1,3.9-1.5,8.1-1.5,12.6v51.6H65.8v-61.8c0-14.5-5.9-21.7-17.6-21.7
			c-3.4,0-6.4,0.8-9,2.5c-2.6,1.7-4.8,3.9-6.5,6.7c-1.8,2.8-3.1,6.2-4.1,10.1c-1,3.9-1.4,8.1-1.4,12.6v51.6H0.5V294z"/>
		<path class="st1" d="M250.2,374.6c-4.6,8.7-10.9,15.7-18.7,21c-7.8,5.3-17.4,8-28.7,8c-7.6,0-14.7-1.4-21.1-4.2
			s-12.1-6.8-16.8-11.8c-4.8-5.1-8.5-11-11.1-17.9s-4-14.4-4-22.7c0-7.7,1.3-14.9,3.9-21.8s6.2-12.9,10.8-18
			c4.6-5.1,10.1-9.2,16.4-12.3c6.3-3,13.3-4.6,20.9-4.6c8,0,15.2,1.4,21.4,4.2c6.3,2.8,11.5,6.7,15.7,11.7c4.2,5,7.4,10.9,9.6,17.7
			c2.2,6.8,3.3,14.2,3.3,22.1c0,1,0,1.9,0,2.6c-0.1,0.9-0.2,1.7-0.2,2.4c-0.1,0.7-0.2,1.5-0.2,2.4h-75.4c0.5,4.3,1.7,8.1,3.4,11.2
			c1.7,3.1,3.8,5.7,6.3,7.8c2.5,2.1,5.3,3.6,8.3,4.6c3,0.9,6.1,1.4,9.2,1.4c6.1,0,11.2-1.5,15.2-4.4c4-3,7.2-6.7,9.5-11.2
			L250.2,374.6z M225.9,333.4c-0.1-1.9-0.7-4-1.7-6.3c-1-2.3-2.5-4.5-4.5-6.5c-2-2-4.4-3.7-7.3-5c-2.9-1.3-6.4-2-10.5-2
			c-5.7,0-10.8,1.7-15.1,5.2c-4.4,3.5-7.4,8.3-9.2,14.5H225.9z"/>
	</g>
</g>
</svg>
