<!-- Generator: Adobe Illustrator 22.0.1, SVG Export Plug-In  -->
<svg version="1.1"
	 xmlns="http://www.w3.org/2000/svg" xmlns:xlink="http://www.w3.org/1999/xlink" xmlns:a="http://ns.adobe.com/AdobeSVGViewerExtensions/3.0/"
	 x="0px" y="0px" width="14.843px" height="14.843px" viewBox="0 0 14.843 14.843"
	 style="enable-background:new 0 0 14.843 14.843;" xml:space="preserve">
<style type="text/css">
	.st0{fill:#5C6063;}
</style>
<defs>
</defs>
<g>
	<g>
		<path class="st0" d="M0,7.425C-0.002,3.337,3.326,0.004,7.414,0c4.094-0.004,7.431,3.331,7.429,7.425
			c-0.002,4.087-3.334,7.418-7.421,7.418C3.334,14.843,0.002,11.512,0,7.425z M7.417,8.906c0.757,0,1.515-0.003,2.272,0.003
			c0.117,0.001,0.14-0.033,0.149-0.144c0.075-0.895,0.075-1.79,0-2.686C9.829,5.969,9.807,5.934,9.69,5.934
			c-1.515,0.005-3.029,0.004-4.544,0c-0.109,0-0.132,0.032-0.141,0.136C4.93,6.966,4.93,7.861,5.003,8.756
			c0.011,0.135,0.055,0.153,0.173,0.152C5.923,8.903,6.67,8.906,7.417,8.906z M7.406,4.948c0.716,0,1.432-0.002,2.148,0.002
			c0.105,0.001,0.143-0.014,0.12-0.132C9.553,4.207,9.409,3.604,9.186,3.021C8.965,2.442,8.703,1.884,8.268,1.429
			C7.711,0.845,7.135,0.848,6.574,1.428C6.556,1.446,6.538,1.465,6.521,1.484C6.269,1.767,6.074,2.087,5.91,2.426
			c-0.37,0.765-0.585,1.577-0.744,2.407C5.147,4.936,5.18,4.95,5.273,4.95C5.984,4.946,6.695,4.948,7.406,4.948z M7.437,9.895
			c-0.721,0-1.442,0.002-2.163-0.002c-0.092,0-0.127,0.012-0.107,0.116c0.142,0.744,0.329,1.474,0.634,2.169
			c0.21,0.478,0.457,0.935,0.839,1.3c0.523,0.5,1.037,0.499,1.561,0.001c0.302-0.287,0.519-0.637,0.703-1.007
			c0.387-0.78,0.609-1.612,0.771-2.462C9.695,9.908,9.664,9.893,9.57,9.893C8.859,9.897,8.148,9.895,7.437,9.895z M12.255,5.937
			c-0.438,0-0.876,0.004-1.313-0.003c-0.108-0.002-0.125,0.034-0.117,0.13c0.081,0.905,0.081,1.81,0,2.715
			c-0.009,0.099,0.013,0.129,0.118,0.128c0.87-0.005,1.741-0.004,2.612,0c0.099,0.001,0.128-0.032,0.148-0.124
			c0.2-0.909,0.199-1.817,0-2.726c-0.02-0.093-0.052-0.124-0.149-0.123C13.121,5.941,12.688,5.937,12.255,5.937z M2.596,8.906
			c0.433,0,0.865-0.004,1.298,0.003C4.01,8.911,4.033,8.874,4.018,8.77C4.001,8.658,3.997,8.545,3.99,8.432
			C3.94,7.639,3.946,6.846,4.019,6.055c0.009-0.095-0.014-0.12-0.112-0.12c-0.876,0.004-1.751,0.004-2.627,0
			c-0.093,0-0.119,0.033-0.138,0.117c-0.202,0.914-0.201,1.827,0,2.741c0.019,0.087,0.05,0.116,0.141,0.114
			C1.721,8.903,2.158,8.906,2.596,8.906z M9.447,1.314c0.119,0.21,0.228,0.389,0.323,0.574c0.466,0.91,0.734,1.882,0.897,2.886
			c0.022,0.135,0.062,0.181,0.208,0.179c0.731-0.01,1.463-0.004,2.194-0.004c0.09,0,0.181,0,0.295,0
			C12.57,3.173,11.277,1.978,9.447,1.314z M13.364,9.895c-0.821,0-1.614,0-2.407,0c-0.252,0-0.252,0-0.296,0.246
			c-0.017,0.096-0.035,0.192-0.055,0.288c-0.219,1.073-0.536,2.11-1.134,3.042c-0.006,0.009-0.023,0.027,0.02,0.042
			C11.279,12.864,12.567,11.667,13.364,9.895z M1.479,9.895c0.797,1.774,2.087,2.971,3.931,3.638c-0.38-0.587-0.64-1.181-0.84-1.803
			c-0.176-0.549-0.307-1.108-0.401-1.677C4.158,9.983,4.18,9.891,4.044,9.892C3.199,9.898,2.355,9.895,1.479,9.895z M1.48,4.948
			c0.789,0,1.551,0,2.313,0c0.35,0,0.348,0,0.409-0.336C4.41,3.461,4.744,2.356,5.378,1.359c0.008-0.013,0.005-0.02-0.035-0.026
			C3.565,1.979,2.275,3.174,1.48,4.948z"/>
	</g>
</g>
</svg>